<?xml version="1.0" encoding="utf-8"?>
<!-- Generator: Adobe Illustrator 23.0.6, SVG Export Plug-In . SVG Version: 6.00 Build 0)  -->
<svg version="1.1" id="Capa_1" xmlns="http://www.w3.org/2000/svg" xmlns:xlink="http://www.w3.org/1999/xlink" x="0px" y="0px"
	 viewBox="0 0 819 540" style="enable-background:new 0 0 819 540;" xml:space="preserve">
<style type="text/css">
	.st0{fill:#3EC6F5;}
</style>
<g>
	<g>
		<g>
			<path d="M41.27,284.61c0-18.23,4.54-32.42,13.61-42.58c9.07-10.15,21.71-15.23,37.9-15.23c16.6,0,29.4,4.99,38.38,14.97
				c8.98,9.98,13.47,23.96,13.47,41.93c0,13.05-1.96,23.75-5.89,32.11c-3.92,8.35-9.59,14.85-17.01,19.5
				c-7.42,4.65-16.66,6.97-27.73,6.97c-11.25,0-20.56-2.01-27.93-6.02c-7.37-4.01-13.35-10.36-17.93-19.04
				C43.56,308.52,41.27,297.66,41.27,284.61z M72.09,284.76c0,11.27,1.87,19.37,5.61,24.3s8.83,7.39,15.28,7.39
				c6.62,0,11.75-2.41,15.38-7.23c3.63-4.82,5.44-13.48,5.44-25.97c0-10.51-1.9-18.19-5.68-23.04c-3.79-4.85-8.93-7.27-15.41-7.27
				c-6.22,0-11.21,2.46-14.97,7.39C73.98,265.23,72.09,273.39,72.09,284.76z"/>
			<path d="M155.86,303.42l29.33-2.06c0.63,5.33,1.93,9.39,3.88,12.19c3.17,4.52,7.71,6.78,13.61,6.78c4.4,0,7.79-1.15,10.17-3.46
				c2.38-2.31,3.57-4.99,3.57-8.04c0-2.89-1.13-5.48-3.4-7.77c-2.27-2.29-7.53-4.44-15.79-6.47c-13.52-3.4-23.16-7.92-28.92-13.56
				c-5.81-5.64-8.71-12.82-8.71-21.55c0-5.74,1.49-11.16,4.46-16.26c2.97-5.1,7.44-9.12,13.41-12.04
				c5.96-2.92,14.14-4.38,24.53-4.38c12.75,0,22.47,2.65,29.16,7.96c6.69,5.31,10.67,13.75,11.94,25.33l-29.06,1.9
				c-0.77-5.03-2.39-8.68-4.87-10.97c-2.47-2.29-5.89-3.43-10.24-3.43c-3.58,0-6.28,0.85-8.1,2.55c-1.81,1.7-2.72,3.77-2.72,6.21
				c0,1.78,0.75,3.38,2.25,4.8c1.45,1.47,4.9,2.84,10.34,4.11c13.47,3.25,23.12,6.54,28.95,9.86c5.83,3.33,10.07,7.45,12.73,12.38
				c2.65,4.93,3.98,10.44,3.98,16.53c0,7.16-1.77,13.76-5.31,19.8c-3.54,6.04-8.48,10.62-14.83,13.75
				c-6.35,3.12-14.36,4.69-24.02,4.69c-16.97,0-28.72-3.66-35.25-10.97C160.42,323.98,156.72,314.69,155.86,303.42z"/>
			<path d="M254.87,228.7h93.7v27.57h-31.44v84.09h-30.83v-84.09h-31.44V228.7z"/>
			<path d="M424.17,294.66l27.01,9.14c-1.82,8.48-4.67,15.56-8.57,21.25c-3.9,5.69-8.74,9.98-14.53,12.87s-13.14,4.34-22.08,4.34
				c-10.84,0-19.7-1.76-26.57-5.29c-6.87-3.53-12.8-9.73-17.79-18.61c-4.99-8.88-7.49-20.25-7.49-34.1
				c0-18.47,4.39-32.67,13.17-42.59c8.78-9.92,21.2-14.88,37.26-14.88c12.57,0,22.44,2.84,29.64,8.53
				c7.19,5.69,12.53,14.42,16.02,26.2l-27.22,6.78c-0.95-3.4-1.95-5.89-2.99-7.46c-1.72-2.64-3.83-4.67-6.33-6.09
				c-2.5-1.42-5.29-2.13-8.37-2.13c-6.99,0-12.34,3.14-16.06,9.43c-2.81,4.67-4.22,12-4.22,21.99c0,12.38,1.68,20.86,5.04,25.45
				c3.36,4.59,8.07,6.88,14.15,6.88c5.9,0,10.35-1.85,13.37-5.56C420.62,307.1,422.81,301.72,424.17,294.66z"/>
			<path d="M527.49,321.93h-35l-4.86,18.43h-31.47l37.49-111.66h33.62l37.49,111.66h-32.28L527.49,321.93z M521.09,297.78
				l-11.01-40.14l-10.9,40.14H521.09z"/>
			<path d="M574.97,340.36V228.7h51.38c9.53,0,16.81,0.91,21.84,2.74c5.04,1.83,9.09,5.22,12.18,10.17
				c3.08,4.95,4.63,10.98,4.63,18.09c0,6.2-1.18,11.54-3.54,16.03s-5.61,8.14-9.74,10.93c-2.63,1.78-6.24,3.25-10.83,4.42
				c3.67,1.37,6.35,2.75,8.02,4.12c1.13,0.91,2.78,2.87,4.93,5.87c2.15,3,3.59,5.31,4.32,6.94l14.93,32.36h-34.83l-16.48-34.12
				c-2.09-4.42-3.95-7.29-5.58-8.61c-2.22-1.73-4.74-2.59-7.55-2.59h-2.72v45.32H574.97z M605.93,273.94h13
				c1.41,0,4.13-0.51,8.17-1.52c2.04-0.46,3.71-1.62,5-3.5c1.29-1.88,1.94-4.04,1.94-6.47c0-3.61-1.02-6.37-3.06-8.3
				c-2.04-1.93-5.88-2.89-11.5-2.89h-13.54V273.94z"/>
			<path d="M744.29,321.93h-35l-4.86,18.43h-31.47l37.49-111.66h33.62l37.49,111.66h-32.28L744.29,321.93z M737.9,297.78
				l-11.01-40.14l-10.9,40.14H737.9z"/>
		</g>
	</g>
	<polygon class="st0" points="477.14,55.39 691.04,55.39 576.66,200.66 366.19,200.66 	"/>
	<polygon class="st0" points="248.38,363.08 462.27,363.08 347.89,508.35 137.42,508.35 	"/>
</g>
</svg>
